# xmcd
#
# Track frame offsets:
#	150
#	15534
#	32668
#	50653
#	69638
#	83167
#	97172
#	115697
#	133903
#	150116
#	166825
#	183750
#	202089
#
# Disc length: 2911 seconds
# Revision: 1
# Processed by: cddbd v1.5.2PL0 Copyright (c) Steve Scherf et al.
# Submitted via: dBpowerAMP V12.0
#
DISCID=a50b5d0d
DTITLE=Chris Stuart and Backcountry - Crooked Man
DYEAR=2008
DGENRE=Country
TTITLE0=Crooked Man
TTITLE1=The Streets of Charlottetown
TTITLE2=Lantern Bay Inn
TTITLE3=Sojourner
TTITLE4=I Remember Memphis
TTITLE5=When We Come Home
TTITLE6=Silverton
TTITLE7=The Crime at Quiet Dell
TTITLE8=These Tears
TTITLE9=Ofer and Yesbuddy
TTITLE10=Brunswick Stew
TTITLE11=Thirteen Steps
TTITLE12=I See God Coming Down the Road
EXTD=
EXTT0=
EXTT1=
EXTT2=
EXTT3=
EXTT4=
EXTT5=
EXTT6=
EXTT7=
EXTT8=
EXTT9=
EXTT10=
EXTT11=
EXTT12=
PLAYORDER=
